STARTFONT 2.1
COMMENT $XConsortium: lutBS08.bdf,v 1.8 94/04/02 16:25:34 gildea Exp $
FONT -B&H-LucidaTypewriter-Bold-R-Normal-Sans-11-80-100-100-M-70-ISO8859-1
SIZE 8 100 100
FONTBOUNDINGBOX 7 11 3 -2
STARTPROPERTIES 20
FONTNAME_REGISTRY ""
FOUNDRY "B&H"
FAMILY_NAME "LucidaTypewriter"
WEIGHT_NAME "Bold"
SLANT "R"
SETWIDTH_NAME "Normal"
ADD_STYLE_NAME "Sans"
PIXEL_SIZE 11
POINT_SIZE 80
RESOLUTION_X 100
RESOLUTION_Y 100
SPACING "M"
AVERAGE_WIDTH 70
CHARSET_REGISTRY "ISO8859"
CHARSET_ENCODING "1"
FONT_ASCENT 9
FONT_DESCENT 2
DEFAULT_CHAR 0
COPYRIGHT "Copyright Bigelow & Holmes 1986, 1985."
FACE_NAME "Lucida Sans Typewriter Bold"
ENDPROPERTIES
CHARS 190
STARTCHAR space
ENCODING 32
SWIDTH 602 0
DWIDTH 7 0
BBX 1 1 0 0
BITMAP
00
ENDCHAR
STARTCHAR exclam
ENCODING 33
SWIDTH 602 0
DWIDTH 7 0
BBX 1 8 3 0
BITMAP
80
80
80
80
80
80
00
80
ENDCHAR
STARTCHAR quotedbl
ENCODING 34
SWIDTH 602 0
DWIDTH 7 0
BBX 4 3 1 5
BITMAP
90
90
90
ENDCHAR
STARTCHAR numbersign
ENCODING 35
SWIDTH 602 0
DWIDTH 7 0
BBX 6 8 0 0
BITMAP
3c
28
fc
28
50
fc
50
f0
ENDCHAR
STARTCHAR dollar
ENCODING 36
SWIDTH 602 0
DWIDTH 7 0
BBX 5 10 1 -1
BITMAP
20
78
80
80
60
10
08
88
f0
20
ENDCHAR
STARTCHAR percent
ENCODING 37
SWIDTH 602 0
DWIDTH 7 0
BBX 6 8 0 0
BITMAP
4c
a8
b0
50
28
34
54
c8
ENDCHAR
STARTCHAR ampersand
ENCODING 38
SWIDTH 602 0
DWIDTH 7 0
BBX 6 8 0 0
BITMAP
30
48
78
74
b4
94
88
7c
ENDCHAR
STARTCHAR quoteright
ENCODING 39
SWIDTH 602 0
DWIDTH 7 0
BBX 2 3 2 5
BITMAP
c0
c0
c0
ENDCHAR
STARTCHAR parenleft
ENCODING 40
SWIDTH 602 0
DWIDTH 7 0
BBX 4 10 2 -2
BITMAP
30
60
c0
80
80
80
80
40
60
10
ENDCHAR
STARTCHAR parenright
ENCODING 41
SWIDTH 602 0
DWIDTH 7 0
BBX 4 10 1 -2
BITMAP
c0
60
20
10
10
10
10
20
60
c0
ENDCHAR
STARTCHAR asterisk
ENCODING 42
SWIDTH 602 0
DWIDTH 7 0
BBX 5 5 1 3
BITMAP
20
a8
d8
50
50
ENDCHAR
STARTCHAR plus
ENCODING 43
SWIDTH 602 0
DWIDTH 7 0
BBX 5 6 1 0
BITMAP
20
20
f8
20
20
20
ENDCHAR
STARTCHAR comma
ENCODING 44
SWIDTH 602 0
DWIDTH 7 0
BBX 2 4 2 -2
BITMAP
c0
c0
40
c0
ENDCHAR
STARTCHAR minus
ENCODING 45
SWIDTH 602 0
DWIDTH 7 0
BBX 6 1 0 2
BITMAP
fc
ENDCHAR
STARTCHAR period
ENCODING 46
SWIDTH 602 0
DWIDTH 7 0
BBX 2 1 2 0
BITMAP
c0
ENDCHAR
STARTCHAR slash
ENCODING 47
SWIDTH 602 0
DWIDTH 7 0
BBX 7 10 0 -2
BITMAP
06
04
08
08
10
10
20
20
40
c0
ENDCHAR
STARTCHAR zero
ENCODING 48
SWIDTH 602 0
DWIDTH 7 0
BBX 6 8 0 0
BITMAP
78
48
84
84
84
84
48
78
ENDCHAR
STARTCHAR one
ENCODING 49
SWIDTH 602 0
DWIDTH 7 0
BBX 5 8 1 0
BITMAP
e0
20
20
20
20
20
20
f8
ENDCHAR
STARTCHAR two
ENCODING 50
SWIDTH 602 0
DWIDTH 7 0
BBX 5 8 1 0
BITMAP
f0
08
08
18
30
60
c0
f8
ENDCHAR
STARTCHAR three
ENCODING 51
SWIDTH 602 0
DWIDTH 7 0
BBX 4 8 1 0
BITMAP
e0
10
10
60
30
10
10
e0
ENDCHAR
STARTCHAR four
ENCODING 52
SWIDTH 602 0
DWIDTH 7 0
BBX 5 8 1 0
BITMAP
30
30
70
50
90
f8
10
10
ENDCHAR
STARTCHAR five
ENCODING 53
SWIDTH 602 0
DWIDTH 7 0
BBX 4 8 2 0
BITMAP
f0
c0
80
e0
30
10
10
e0
ENDCHAR
STARTCHAR six
ENCODING 54
SWIDTH 602 0
DWIDTH 7 0
BBX 6 8 0 0
BITMAP
3c
40
80
f8
84
84
4c
78
ENDCHAR
STARTCHAR seven
ENCODING 55
SWIDTH 602 0
DWIDTH 7 0
BBX 5 8 1 0
BITMAP
f8
18
10
20
60
40
c0
80
ENDCHAR
STARTCHAR eight
ENCODING 56
SWIDTH 602 0
DWIDTH 7 0
BBX 5 8 1 0
BITMAP
70
88
c8
70
78
88
88
70
ENDCHAR
STARTCHAR nine
ENCODING 57
SWIDTH 602 0
DWIDTH 7 0
BBX 6 8 0 0
BITMAP
78
c8
84
84
7c
04
08
f0
ENDCHAR
STARTCHAR colon
ENCODING 58
SWIDTH 602 0
DWIDTH 7 0
BBX 1 6 3 0
BITMAP
80
00
00
00
00
80
ENDCHAR
STARTCHAR semicolon
ENCODING 59
SWIDTH 602 0
DWIDTH 7 0
BBX 1 8 3 -2
BITMAP
80
00
00
00
80
80
80
80
ENDCHAR
STARTCHAR less
ENCODING 60
SWIDTH 602 0
DWIDTH 7 0
BBX 6 6 0 0
BITMAP
04
1c
f0
70
1c
04
ENDCHAR
STARTCHAR equal
ENCODING 61
SWIDTH 602 0
DWIDTH 7 0
BBX 6 4 0 1
BITMAP
fc
00
00
fc
ENDCHAR
STARTCHAR greater
ENCODING 62
SWIDTH 602 0
DWIDTH 7 0
BBX 6 6 0 0
BITMAP
80
e0
38
3c
e0
80
ENDCHAR
STARTCHAR question
ENCODING 63
SWIDTH 602 0
DWIDTH 7 0
BBX 5 8 1 0
BITMAP
f0
88
08
30
40
40
00
40
ENDCHAR
STARTCHAR at
ENCODING 64
SWIDTH 602 0
DWIDTH 7 0
BBX 7 8 0 0
BITMAP
38
44
9c
a4
ac
be
48
78
ENDCHAR
STARTCHAR A
ENCODING 65
SWIDTH 602 0
DWIDTH 7 0
BBX 6 8 0 0
BITMAP
30
30
30
48
48
78
88
84
ENDCHAR
STARTCHAR B
ENCODING 66
SWIDTH 602 0
DWIDTH 7 0
BBX 5 8 1 0
BITMAP
f8
88
88
f0
98
88
88
f0
ENDCHAR
STARTCHAR C
ENCODING 67
SWIDTH 602 0
DWIDTH 7 0
BBX 6 8 0 0
BITMAP
3c
40
80
80
80
80
44
3c
ENDCHAR
STARTCHAR D
ENCODING 68
SWIDTH 602 0
DWIDTH 7 0
BBX 6 8 0 0
BITMAP
f8
8c
84
84
84
84
88
f0
ENDCHAR
STARTCHAR E
ENCODING 69
SWIDTH 602 0
DWIDTH 7 0
BBX 5 8 1 0
BITMAP
f8
80
80
f0
80
80
80
f8
ENDCHAR
STARTCHAR F
ENCODING 70
SWIDTH 602 0
DWIDTH 7 0
BBX 5 8 1 0
BITMAP
f8
80
80
80
f0
80
80
80
ENDCHAR
STARTCHAR G
ENCODING 71
SWIDTH 602 0
DWIDTH 7 0
BBX 6 8 0 0
BITMAP
3c
44
80
80
84
84
44
3c
ENDCHAR
STARTCHAR H
ENCODING 72
SWIDTH 602 0
DWIDTH 7 0
BBX 6 8 0 0
BITMAP
84
84
84
fc
84
84
84
84
ENDCHAR
STARTCHAR I
ENCODING 73
SWIDTH 602 0
DWIDTH 7 0
BBX 5 8 1 0
BITMAP
f8
20
20
20
20
20
20
f8
ENDCHAR
STARTCHAR J
ENCODING 74
SWIDTH 602 0
DWIDTH 7 0
BBX 4 8 1 0
BITMAP
f0
10
10
10
10
10
10
e0
ENDCHAR
STARTCHAR K
ENCODING 75
SWIDTH 602 0
DWIDTH 7 0
BBX 5 8 1 0
BITMAP
98
90
a0
c0
e0
a0
90
98
ENDCHAR
STARTCHAR L
ENCODING 76
SWIDTH 602 0
DWIDTH 7 0
BBX 5 8 1 0
BITMAP
80
80
80
80
80
80
80
f8
ENDCHAR
STARTCHAR M
ENCODING 77
SWIDTH 602 0
DWIDTH 7 0
BBX 6 8 0 0
BITMAP
cc
cc
cc
ec
b4
b4
b4
84
ENDCHAR
STARTCHAR N
ENCODING 78
SWIDTH 602 0
DWIDTH 7 0
BBX 5 8 1 0
BITMAP
88
c8
c8
a8
a8
98
98
88
ENDCHAR
STARTCHAR O
ENCODING 79
SWIDTH 602 0
DWIDTH 7 0
BBX 6 8 0 0
BITMAP
78
48
84
84
84
84
48
78
ENDCHAR
STARTCHAR P
ENCODING 80
SWIDTH 602 0
DWIDTH 7 0
BBX 6 8 1 0
BITMAP
f8
84
84
8c
f8
80
80
80
ENDCHAR
STARTCHAR Q
ENCODING 81
SWIDTH 602 0
DWIDTH 7 0
BBX 7 10 0 -2
BITMAP
78
48
84
84
84
84
4c
38
0e
04
ENDCHAR
STARTCHAR R
ENCODING 82
SWIDTH 602 0
DWIDTH 7 0
BBX 5 8 1 0
BITMAP
f0
88
88
98
f0
90
98
88
ENDCHAR
STARTCHAR S
ENCODING 83
SWIDTH 602 0
DWIDTH 7 0
BBX 6 8 0 0
BITMAP
78
80
80
60
18
04
84
f8
ENDCHAR
STARTCHAR T
ENCODING 84
SWIDTH 602 0
DWIDTH 7 0
BBX 5 8 1 0
BITMAP
f8
20
20
20
20
20
20
20
ENDCHAR
STARTCHAR U
ENCODING 85
SWIDTH 602 0
DWIDTH 7 0
BBX 5 8 1 0
BITMAP
88
88
88
88
88
88
88
70
ENDCHAR
STARTCHAR V
ENCODING 86
SWIDTH 602 0
DWIDTH 7 0
BBX 6 8 0 0
BITMAP
84
4c
48
48
68
30
30
30
ENDCHAR
STARTCHAR W
ENCODING 87
SWIDTH 602 0
DWIDTH 7 0
BBX 7 8 0 0
BITMAP
82
9a
9a
ee
6c
64
64
44
ENDCHAR
STARTCHAR X
ENCODING 88
SWIDTH 602 0
DWIDTH 7 0
BBX 6 8 0 0
BITMAP
cc
48
30
30
30
70
48
8c
ENDCHAR
STARTCHAR Y
ENCODING 89
SWIDTH 602 0
DWIDTH 7 0
BBX 6 8 0 0
BITMAP
cc
48
78
30
20
20
20
20
ENDCHAR
STARTCHAR Z
ENCODING 90
SWIDTH 602 0
DWIDTH 7 0
BBX 6 8 0 0
BITMAP
fc
08
18
10
20
60
40
fc
ENDCHAR
STARTCHAR bracketleft
ENCODING 91
SWIDTH 602 0
DWIDTH 7 0
BBX 4 10 2 -2
BITMAP
f0
80
80
80
80
80
80
80
80
f0
ENDCHAR
STARTCHAR backslash
ENCODING 92
SWIDTH 602 0
DWIDTH 7 0
BBX 6 10 0 -2
BITMAP
80
40
40
20
20
10
10
08
08
04
ENDCHAR
STARTCHAR bracketright
ENCODING 93
SWIDTH 602 0
DWIDTH 7 0
BBX 4 10 1 -2
BITMAP
f0
10
10
10
10
10
10
10
10
f0
ENDCHAR
STARTCHAR asciicircum
ENCODING 94
SWIDTH 602 0
DWIDTH 7 0
BBX 6 7 0 1
BITMAP
10
30
30
30
48
48
84
ENDCHAR
STARTCHAR underscore
ENCODING 95
SWIDTH 602 0
DWIDTH 7 0
BBX 7 1 0 -1
BITMAP
fe
ENDCHAR
STARTCHAR quoteleft
ENCODING 96
SWIDTH 602 0
DWIDTH 7 0
BBX 2 3 2 5
BITMAP
c0
c0
c0
ENDCHAR
STARTCHAR a
ENCODING 97
SWIDTH 602 0
DWIDTH 7 0
BBX 6 6 0 0
BITMAP
78
08
78
88
88
7c
ENDCHAR
STARTCHAR b
ENCODING 98
SWIDTH 602 0
DWIDTH 7 0
BBX 6 8 0 0
BITMAP
80
80
b8
c4
84
84
8c
f8
ENDCHAR
STARTCHAR c
ENCODING 99
SWIDTH 602 0
DWIDTH 7 0
BBX 5 6 1 0
BITMAP
78
c0
80
80
c0
78
ENDCHAR
STARTCHAR d
ENCODING 100
SWIDTH 602 0
DWIDTH 7 0
BBX 6 8 0 0
BITMAP
04
04
7c
c4
84
84
8c
74
ENDCHAR
STARTCHAR e
ENCODING 101
SWIDTH 602 0
DWIDTH 7 0
BBX 6 6 0 0
BITMAP
78
c4
fc
80
c0
7c
ENDCHAR
STARTCHAR f
ENCODING 102
SWIDTH 602 0
DWIDTH 7 0
BBX 5 8 1 0
BITMAP
38
40
f8
40
40
40
40
40
ENDCHAR
STARTCHAR g
ENCODING 103
SWIDTH 602 0
DWIDTH 7 0
BBX 6 8 0 -2
BITMAP
7c
c4
84
84
cc
74
04
78
ENDCHAR
STARTCHAR h
ENCODING 104
SWIDTH 602 0
DWIDTH 7 0
BBX 5 8 1 0
BITMAP
80
80
b0
c8
88
88
88
88
ENDCHAR
STARTCHAR i
ENCODING 105
SWIDTH 602 0
DWIDTH 7 0
BBX 3 8 1 0
BITMAP
20
00
e0
20
20
20
20
20
ENDCHAR
STARTCHAR j
ENCODING 106
SWIDTH 602 0
DWIDTH 7 0
BBX 4 10 1 -2
BITMAP
10
00
70
10
10
10
10
10
10
f0
ENDCHAR
STARTCHAR k
ENCODING 107
SWIDTH 602 0
DWIDTH 7 0
BBX 5 8 1 0
BITMAP
80
80
98
a0
e0
e0
b0
98
ENDCHAR
STARTCHAR l
ENCODING 108
SWIDTH 602 0
DWIDTH 7 0
BBX 3 8 1 0
BITMAP
e0
20
20
20
20
20
20
20
ENDCHAR
STARTCHAR m
ENCODING 109
SWIDTH 602 0
DWIDTH 7 0
BBX 7 6 0 0
BITMAP
be
fe
92
92
92
92
ENDCHAR
STARTCHAR n
ENCODING 110
SWIDTH 602 0
DWIDTH 7 0
BBX 5 6 1 0
BITMAP
b0
c8
88
88
88
88
ENDCHAR
STARTCHAR o
ENCODING 111
SWIDTH 602 0
DWIDTH 7 0
BBX 6 6 0 0
BITMAP
78
cc
84
84
cc
78
ENDCHAR
STARTCHAR p
ENCODING 112
SWIDTH 602 0
DWIDTH 7 0
BBX 6 8 0 -2
BITMAP
b8
c4
84
84
8c
f8
80
80
ENDCHAR
STARTCHAR q
ENCODING 113
SWIDTH 602 0
DWIDTH 7 0
BBX 6 8 0 -2
BITMAP
7c
c4
84
84
8c
74
04
04
ENDCHAR
STARTCHAR r
ENCODING 114
SWIDTH 602 0
DWIDTH 7 0
BBX 4 6 2 0
BITMAP
b0
d0
80
80
80
80
ENDCHAR
STARTCHAR s
ENCODING 115
SWIDTH 602 0
DWIDTH 7 0
BBX 5 6 1 0
BITMAP
78
c0
e0
18
08
f0
ENDCHAR
STARTCHAR t
ENCODING 116
SWIDTH 602 0
DWIDTH 7 0
BBX 4 8 1 0
BITMAP
40
40
f0
40
40
40
40
30
ENDCHAR
STARTCHAR u
ENCODING 117
SWIDTH 602 0
DWIDTH 7 0
BBX 5 6 1 0
BITMAP
88
88
88
88
98
68
ENDCHAR
STARTCHAR v
ENCODING 118
SWIDTH 602 0
DWIDTH 7 0
BBX 6 6 0 0
BITMAP
84
48
48
28
30
30
ENDCHAR
STARTCHAR w
ENCODING 119
SWIDTH 602 0
DWIDTH 7 0
BBX 7 6 0 0
BITMAP
82
9a
aa
6c
6c
4c
ENDCHAR
STARTCHAR x
ENCODING 120
SWIDTH 602 0
DWIDTH 7 0
BBX 6 6 0 0
BITMAP
cc
78
30
30
58
cc
ENDCHAR
STARTCHAR y
ENCODING 121
SWIDTH 602 0
DWIDTH 7 0
BBX 6 8 0 -2
BITMAP
c4
48
68
30
30
10
20
e0
ENDCHAR
STARTCHAR z
ENCODING 122
SWIDTH 602 0
DWIDTH 7 0
BBX 5 6 1 0
BITMAP
f8
10
20
60
40
f8
ENDCHAR
STARTCHAR braceleft
ENCODING 123
SWIDTH 602 0
DWIDTH 7 0
BBX 4 10 2 -2
BITMAP
30
20
20
20
20
e0
20
20
20
30
ENDCHAR
STARTCHAR bar
ENCODING 124
SWIDTH 602 0
DWIDTH 7 0
BBX 1 10 3 -2
BITMAP
80
80
80
80
80
80
80
80
80
80
ENDCHAR
STARTCHAR braceright
ENCODING 125
SWIDTH 602 0
DWIDTH 7 0
BBX 4 10 1 -2
BITMAP
c0
40
40
40
40
70
40
40
40
c0
ENDCHAR
STARTCHAR asciitilde
ENCODING 126
SWIDTH 602 0
DWIDTH 7 0
BBX 6 2 0 2
BITMAP
64
98
ENDCHAR
STARTCHAR exclamdown
ENCODING 161
SWIDTH 602 0
DWIDTH 7 0
BBX 1 8 3 -2
BITMAP
80
00
80
80
80
80
80
80
ENDCHAR
STARTCHAR cent
ENCODING 162
SWIDTH 602 0
DWIDTH 7 0
BBX 5 8 1 0
BITMAP
10
38
c0
80
80
c0
38
10
ENDCHAR
STARTCHAR sterling
ENCODING 163
SWIDTH 602 0
DWIDTH 7 0
BBX 4 8 1 0
BITMAP
70
40
40
e0
40
40
40
f0
ENDCHAR
STARTCHAR currency
ENCODING 164
SWIDTH 602 0
DWIDTH 7 0
BBX 5 6 1 1
BITMAP
f8
c8
88
88
c8
f8
ENDCHAR
STARTCHAR yen
ENCODING 165
SWIDTH 602 0
DWIDTH 7 0
BBX 6 8 0 0
BITMAP
cc
48
30
30
78
78
20
20
ENDCHAR
STARTCHAR brokenbar
ENCODING 166
SWIDTH 602 0
DWIDTH 7 0
BBX 1 10 3 -2
BITMAP
80
80
80
80
00
00
80
80
80
80
ENDCHAR
STARTCHAR section
ENCODING 167
SWIDTH 602 0
DWIDTH 7 0
BBX 5 10 1 -2
BITMAP
78
80
c0
70
88
88
70
08
08
f0
ENDCHAR
STARTCHAR dieresis
ENCODING 168
SWIDTH 602 0
DWIDTH 7 0
BBX 3 1 2 7
BITMAP
a0
ENDCHAR
STARTCHAR copyright
ENCODING 169
SWIDTH 602 0
DWIDTH 7 0
BBX 5 8 1 0
BITMAP
70
88
a8
c8
c8
a8
88
70
ENDCHAR
STARTCHAR ordfeminine
ENCODING 170
SWIDTH 602 0
DWIDTH 7 0
BBX 5 4 1 4
BITMAP
f0
10
f0
f8
ENDCHAR
STARTCHAR guillemotleft
ENCODING 171
SWIDTH 602 0
DWIDTH 7 0
BBX 6 6 0 0
BITMAP
24
68
58
d8
6c
24
ENDCHAR
STARTCHAR logicalnot
ENCODING 172
SWIDTH 602 0
DWIDTH 7 0
BBX 6 3 0 1
BITMAP
fc
04
04
ENDCHAR
STARTCHAR hyphen
ENCODING 173
SWIDTH 602 0
DWIDTH 7 0
BBX 4 1 1 3
BITMAP
f0
ENDCHAR
STARTCHAR registered
ENCODING 174
SWIDTH 602 0
DWIDTH 7 0
BBX 6 6 0 2
BITMAP
78
cc
bc
bc
fc
78
ENDCHAR
STARTCHAR macron
ENCODING 175
SWIDTH 602 0
DWIDTH 7 0
BBX 3 1 2 7
BITMAP
e0
ENDCHAR
STARTCHAR degree
ENCODING 176
SWIDTH 602 0
DWIDTH 7 0
BBX 2 2 2 6
BITMAP
c0
c0
ENDCHAR
STARTCHAR plusminus
ENCODING 177
SWIDTH 602 0
DWIDTH 7 0
BBX 5 6 1 0
BITMAP
20
20
f8
20
00
f8
ENDCHAR
STARTCHAR twosuperior
ENCODING 178
SWIDTH 602 0
DWIDTH 7 0
BBX 2 4 -2 4
BITMAP
c0
40
80
c0
ENDCHAR
STARTCHAR threesuperior
ENCODING 179
SWIDTH 602 0
DWIDTH 7 0
BBX 2 4 -2 4
BITMAP
c0
c0
40
c0
ENDCHAR
STARTCHAR acute
ENCODING 180
SWIDTH 602 0
DWIDTH 7 0
BBX 3 1 2 7
BITMAP
e0
ENDCHAR
STARTCHAR mu
ENCODING 181
SWIDTH 602 0
DWIDTH 7 0
BBX 5 8 1 -2
BITMAP
88
88
88
88
98
f8
80
80
ENDCHAR
STARTCHAR paragraph
ENCODING 182
SWIDTH 602 0
DWIDTH 7 0
BBX 5 10 1 -2
BITMAP
f8
e8
e8
68
28
28
28
28
28
28
ENDCHAR
STARTCHAR periodcentered
ENCODING 183
SWIDTH 602 0
DWIDTH 7 0
BBX 1 1 3 2
BITMAP
80
ENDCHAR
STARTCHAR cedilla
ENCODING 184
SWIDTH 602 0
DWIDTH 7 0
BBX 2 2 3 -2
BITMAP
80
c0
ENDCHAR
STARTCHAR onesuperior
ENCODING 185
SWIDTH 602 0
DWIDTH 7 0
BBX 3 4 -1 4
BITMAP
c0
40
40
e0
ENDCHAR
STARTCHAR ordmasculine
ENCODING 186
SWIDTH 602 0
DWIDTH 7 0
BBX 5 4 1 4
BITMAP
70
88
88
70
ENDCHAR
STARTCHAR guillemotright
ENCODING 187
SWIDTH 602 0
DWIDTH 7 0
BBX 6 6 0 0
BITMAP
90
d8
6c
68
58
90
ENDCHAR
STARTCHAR onequarter
ENCODING 188
SWIDTH 602 0
DWIDTH 7 0
BBX 7 8 1 0
BITMAP
c6
44
48
f0
14
2c
4e
c4
ENDCHAR
STARTCHAR onehalf
ENCODING 189
SWIDTH 602 0
DWIDTH 7 0
BBX 7 8 1 0
BITMAP
c6
44
48
f0
16
22
44
c6
ENDCHAR
STARTCHAR threequarters
ENCODING 190
SWIDTH 602 0
DWIDTH 7 0
BBX 7 8 1 0
BITMAP
c6
c4
48
d0
14
2c
4e
cc
ENDCHAR
STARTCHAR questiondown
ENCODING 191
SWIDTH 602 0
DWIDTH 7 0
BBX 5 8 1 -2
BITMAP
10
00
10
30
60
80
88
78
ENDCHAR
STARTCHAR Agrave
ENCODING 192
SWIDTH 602 0
DWIDTH 7 0
BBX 6 9 0 0
BITMAP
38
30
30
30
48
48
78
88
84
ENDCHAR
STARTCHAR Aacute
ENCODING 193
SWIDTH 602 0
DWIDTH 7 0
BBX 6 9 0 0
BITMAP
38
30
30
30
48
48
78
88
84
ENDCHAR
STARTCHAR Acircumflex
ENCODING 194
SWIDTH 602 0
DWIDTH 7 0
BBX 6 9 0 0
BITMAP
38
30
30
30
48
48
78
88
84
ENDCHAR
STARTCHAR Atilde
ENCODING 195
SWIDTH 602 0
DWIDTH 7 0
BBX 6 9 0 0
BITMAP
38
30
30
30
48
48
78
88
84
ENDCHAR
STARTCHAR Adieresis
ENCODING 196
SWIDTH 602 0
DWIDTH 7 0
BBX 6 9 0 0
BITMAP
28
30
30
30
48
48
78
88
84
ENDCHAR
STARTCHAR Aring
ENCODING 197
SWIDTH 602 0
DWIDTH 7 0
BBX 6 9 0 0
BITMAP
30
30
30
30
48
48
78
88
84
ENDCHAR
STARTCHAR AE
ENCODING 198
SWIDTH 602 0
DWIDTH 7 0
BBX 6 8 0 0
BITMAP
1c
30
30
3c
50
50
f0
9c
ENDCHAR
STARTCHAR Ccedilla
ENCODING 199
SWIDTH 602 0
DWIDTH 7 0
BBX 6 10 0 -2
BITMAP
3c
40
80
80
80
80
44
3c
20
30
ENDCHAR
STARTCHAR Egrave
ENCODING 200
SWIDTH 602 0
DWIDTH 7 0
BBX 5 9 1 0
BITMAP
20
f8
80
80
f0
80
80
80
f8
ENDCHAR
STARTCHAR Eacute
ENCODING 201
SWIDTH 602 0
DWIDTH 7 0
BBX 5 9 1 0
BITMAP
20
f8
80
80
f0
80
80
80
f8
ENDCHAR
STARTCHAR Ecircumflex
ENCODING 202
SWIDTH 602 0
DWIDTH 7 0
BBX 5 9 1 0
BITMAP
70
f8
80
80
f0
80
80
80
f8
ENDCHAR
STARTCHAR Edieresis
ENCODING 203
SWIDTH 602 0
DWIDTH 7 0
BBX 5 9 1 0
BITMAP
50
f8
80
80
f0
80
80
80
f8
ENDCHAR
STARTCHAR Igrave
ENCODING 204
SWIDTH 602 0
DWIDTH 7 0
BBX 5 9 1 0
BITMAP
20
f8
20
20
20
20
20
20
f8
ENDCHAR
STARTCHAR Iacute
ENCODING 205
SWIDTH 602 0
DWIDTH 7 0
BBX 5 9 1 0
BITMAP
20
f8
20
20
20
20
20
20
f8
ENDCHAR
STARTCHAR Icircumflex
ENCODING 206
SWIDTH 602 0
DWIDTH 7 0
BBX 5 9 1 0
BITMAP
50
f8
20
20
20
20
20
20
f8
ENDCHAR
STARTCHAR Idieresis
ENCODING 207
SWIDTH 602 0
DWIDTH 7 0
BBX 5 9 1 0
BITMAP
50
f8
20
20
20
20
20
20
f8
ENDCHAR
STARTCHAR Eth
ENCODING 208
SWIDTH 602 0
DWIDTH 7 0
BBX 6 8 0 0
BITMAP
f8
8c
84
f4
84
84
88
f0
ENDCHAR
STARTCHAR Ntilde
ENCODING 209
SWIDTH 602 0
DWIDTH 7 0
BBX 5 9 1 0
BITMAP
70
88
c8
c8
a8
a8
98
98
88
ENDCHAR
STARTCHAR Ograve
ENCODING 210
SWIDTH 602 0
DWIDTH 7 0
BBX 6 9 0 0
BITMAP
20
78
48
84
84
84
84
48
78
ENDCHAR
STARTCHAR Oacute
ENCODING 211
SWIDTH 602 0
DWIDTH 7 0
BBX 6 9 0 0
BITMAP
20
78
48
84
84
84
84
48
78
ENDCHAR
STARTCHAR Ocircumflex
ENCODING 212
SWIDTH 602 0
DWIDTH 7 0
BBX 6 9 0 0
BITMAP
50
78
48
84
84
84
84
48
78
ENDCHAR
STARTCHAR Otilde
ENCODING 213
SWIDTH 602 0
DWIDTH 7 0
BBX 6 9 0 0
BITMAP
70
78
48
84
84
84
84
48
78
ENDCHAR
STARTCHAR Odieresis
ENCODING 214
SWIDTH 602 0
DWIDTH 7 0
BBX 6 9 0 0
BITMAP
50
78
48
84
84
84
84
48
78
ENDCHAR
STARTCHAR multiply
ENCODING 215
SWIDTH 602 0
DWIDTH 7 0
BBX 6 6 0 0
BITMAP
84
48
30
30
48
84
ENDCHAR
STARTCHAR Oslash
ENCODING 216
SWIDTH 602 0
DWIDTH 7 0
BBX 6 8 0 0
BITMAP
7c
48
8c
94
a4
c4
48
f8
ENDCHAR
STARTCHAR Ugrave
ENCODING 217
SWIDTH 602 0
DWIDTH 7 0
BBX 5 9 1 0
BITMAP
70
88
88
88
88
88
88
88
70
ENDCHAR
STARTCHAR Uacute
ENCODING 218
SWIDTH 602 0
DWIDTH 7 0
BBX 5 9 1 0
BITMAP
70
88
88
88
88
88
88
88
70
ENDCHAR
STARTCHAR Ucircumflex
ENCODING 219
SWIDTH 602 0
DWIDTH 7 0
BBX 5 9 1 0
BITMAP
70
88
88
88
88
88
88
88
70
ENDCHAR
STARTCHAR Udieresis
ENCODING 220
SWIDTH 602 0
DWIDTH 7 0
BBX 5 9 1 0
BITMAP
50
88
88
88
88
88
88
88
70
ENDCHAR
STARTCHAR Yacute
ENCODING 221
SWIDTH 602 0
DWIDTH 7 0
BBX 6 9 0 0
BITMAP
70
cc
48
78
30
20
20
20
20
ENDCHAR
STARTCHAR Thorn
ENCODING 222
SWIDTH 602 0
DWIDTH 7 0
BBX 6 8 1 0
BITMAP
80
f8
84
84
8c
f8
80
80
ENDCHAR
STARTCHAR germandbls
ENCODING 223
SWIDTH 602 0
DWIDTH 7 0
BBX 5 8 1 0
BITMAP
70
90
a0
a0
b0
88
88
b0
ENDCHAR
STARTCHAR agrave
ENCODING 224
SWIDTH 602 0
DWIDTH 7 0
BBX 6 7 0 0
BITMAP
20
78
08
78
88
88
7c
ENDCHAR
STARTCHAR aacute
ENCODING 225
SWIDTH 602 0
DWIDTH 7 0
BBX 6 7 0 0
BITMAP
20
78
08
78
88
88
7c
ENDCHAR
STARTCHAR acircumflex
ENCODING 226
SWIDTH 602 0
DWIDTH 7 0
BBX 6 7 0 0
BITMAP
50
78
08
78
88
88
7c
ENDCHAR
STARTCHAR atilde
ENCODING 227
SWIDTH 602 0
DWIDTH 7 0
BBX 6 7 0 0
BITMAP
70
78
08
78
88
88
7c
ENDCHAR
STARTCHAR adieresis
ENCODING 228
SWIDTH 602 0
DWIDTH 7 0
BBX 6 7 0 0
BITMAP
50
78
08
78
88
88
7c
ENDCHAR
STARTCHAR aring
ENCODING 229
SWIDTH 602 0
DWIDTH 7 0
BBX 6 7 0 0
BITMAP
30
78
08
78
88
88
7c
ENDCHAR
STARTCHAR ae
ENCODING 230
SWIDTH 602 0
DWIDTH 7 0
BBX 6 6 0 0
BITMAP
78
14
7c
90
90
fc
ENDCHAR
STARTCHAR ccedilla
ENCODING 231
SWIDTH 602 0
DWIDTH 7 0
BBX 5 8 1 -2
BITMAP
78
c0
80
80
c0
78
20
30
ENDCHAR
STARTCHAR egrave
ENCODING 232
SWIDTH 602 0
DWIDTH 7 0
BBX 6 7 0 0
BITMAP
10
78
c4
fc
80
c0
7c
ENDCHAR
STARTCHAR eacute
ENCODING 233
SWIDTH 602 0
DWIDTH 7 0
BBX 6 7 0 0
BITMAP
20
78
c4
fc
80
c0
7c
ENDCHAR
STARTCHAR ecircumflex
ENCODING 234
SWIDTH 602 0
DWIDTH 7 0
BBX 6 7 0 0
BITMAP
50
78
c4
fc
80
c0
7c
ENDCHAR
STARTCHAR edieresis
ENCODING 235
SWIDTH 602 0
DWIDTH 7 0
BBX 6 7 0 0
BITMAP
50
78
c4
fc
80
c0
7c
ENDCHAR
STARTCHAR igrave
ENCODING 236
SWIDTH 602 0
DWIDTH 7 0
BBX 3 7 1 0
BITMAP
40
e0
20
20
20
20
20
ENDCHAR
STARTCHAR iacute
ENCODING 237
SWIDTH 602 0
DWIDTH 7 0
BBX 3 7 1 0
BITMAP
40
e0
20
20
20
20
20
ENDCHAR
STARTCHAR icircumflex
ENCODING 238
SWIDTH 602 0
DWIDTH 7 0
BBX 3 7 1 0
BITMAP
e0
e0
20
20
20
20
20
ENDCHAR
STARTCHAR idieresis
ENCODING 239
SWIDTH 602 0
DWIDTH 7 0
BBX 3 7 1 0
BITMAP
a0
e0
20
20
20
20
20
ENDCHAR
STARTCHAR eth
ENCODING 240
SWIDTH 602 0
DWIDTH 7 0
BBX 6 8 0 0
BITMAP
f8
5c
7c
cc
84
84
cc
78
ENDCHAR
STARTCHAR ntilde
ENCODING 241
SWIDTH 602 0
DWIDTH 7 0
BBX 5 7 1 0
BITMAP
70
b0
c8
88
88
88
88
ENDCHAR
STARTCHAR ograve
ENCODING 242
SWIDTH 602 0
DWIDTH 7 0
BBX 6 7 0 0
BITMAP
10
78
cc
84
84
cc
78
ENDCHAR
STARTCHAR oacute
ENCODING 243
SWIDTH 602 0
DWIDTH 7 0
BBX 6 7 0 0
BITMAP
20
78
cc
84
84
cc
78
ENDCHAR
STARTCHAR ocircumflex
ENCODING 244
SWIDTH 602 0
DWIDTH 7 0
BBX 6 7 0 0
BITMAP
50
78
cc
84
84
cc
78
ENDCHAR
STARTCHAR otilde
ENCODING 245
SWIDTH 602 0
DWIDTH 7 0
BBX 6 7 0 0
BITMAP
38
78
cc
84
84
cc
78
ENDCHAR
STARTCHAR odieresis
ENCODING 246
SWIDTH 602 0
DWIDTH 7 0
BBX 6 7 0 0
BITMAP
50
78
cc
84
84
cc
78
ENDCHAR
STARTCHAR divide
ENCODING 247
SWIDTH 602 0
DWIDTH 7 0
BBX 5 6 1 0
BITMAP
20
00
f8
00
00
20
ENDCHAR
STARTCHAR oslash
ENCODING 248
SWIDTH 602 0
DWIDTH 7 0
BBX 6 6 0 0
BITMAP
7c
cc
94
a4
cc
f8
ENDCHAR
STARTCHAR ugrave
ENCODING 249
SWIDTH 602 0
DWIDTH 7 0
BBX 5 7 1 0
BITMAP
70
88
88
88
88
98
68
ENDCHAR
STARTCHAR uacute
ENCODING 250
SWIDTH 602 0
DWIDTH 7 0
BBX 5 7 1 0
BITMAP
70
88
88
88
88
98
68
ENDCHAR
STARTCHAR ucircumflex
ENCODING 251
SWIDTH 602 0
DWIDTH 7 0
BBX 5 7 1 0
BITMAP
70
88
88
88
88
98
68
ENDCHAR
STARTCHAR udieresis
ENCODING 252
SWIDTH 602 0
DWIDTH 7 0
BBX 5 7 1 0
BITMAP
50
88
88
88
88
98
68
ENDCHAR
STARTCHAR yacute
ENCODING 253
SWIDTH 602 0
DWIDTH 7 0
BBX 6 9 0 -2
BITMAP
70
c4
48
68
30
30
10
20
e0
ENDCHAR
STARTCHAR thorn
ENCODING 254
SWIDTH 602 0
DWIDTH 7 0
BBX 6 10 0 -2
BITMAP
80
80
b8
c4
84
84
8c
f8
80
80
ENDCHAR
STARTCHAR ydieresis
ENCODING 255
SWIDTH 602 0
DWIDTH 7 0
BBX 6 9 0 -2
BITMAP
50
c4
48
68
30
30
10
20
e0
ENDCHAR
ENDFONT
